# xmcd
#
# Track frame offsets:
#	150
#	15079
#	30616
#	47973
#	66235
#	82258
#	100659
#	116316
#	134056
#	149802
#
# Disc length: 2201 seconds
#
# Revision: 1
# Processed by: cddbd v1.5.2PL0 Copyright (c) Steve Scherf et al.
# Submitted via: audiograbber 1.83.01
#
DISCID=8c08970a
DTITLE=Trauffer - Schnupf, Schnaps and Edelwyss CD2
DYEAR=2018
DGENRE=Mundart
TTITLE0=Superzucker Sexysummergroove
TTITLE1=Weschtschwiiz
TTITLE2=Meh chani nümme gäh
TTITLE3=Himmelbett
TTITLE4=Chartehuus
TTITLE5=Gump I See
TTITLE6=C'est la Vie
TTITLE7=Weisch du wär
TTITLE8=Räge Reggae
TTITLE9=Filmkuss
EXTD=
EXTT0=
EXTT1=
EXTT2=
EXTT3=
EXTT4=
EXTT5=
EXTT6=
EXTT7=
EXTT8=
EXTT9=
PLAYORDER=
